<svg width="145" height="7" viewBox="0 0 145 7" fill="none" xmlns="http://www.w3.org/2000/svg">
<path d="M61.2823 0.10953C65.0187 0.0306999 68.6178 0.369436 72.3663 0.346003C77.0218 0.317059 81.7442 -0.0539493 86.4152 0.00668407C91.0507 0.0674613 95.7209 0.169433 100.36 0.311565C104.19 0.429372 108.078 0.574493 111.896 0.753949C112.73 0.792033 113.489 0.83058 114.315 0.872071C118.961 1.1137 123.604 1.3955 128.26 1.84226C131.293 2.19734 134.427 2.32477 137.416 3.51145L137.45 3.52636C137.534 3.57164 137.616 3.616 137.697 3.65947C138.917 4.30441 140.124 4.99869 141.384 5.45908C141.63 5.54477 141.88 5.61419 142.137 5.66702L142.127 5.66563C142.872 5.77811 143.633 5.85589 144.39 5.93746C144.533 5.95268 144.669 5.98519 144.767 6.02922C144.866 6.07331 144.92 6.12504 144.917 6.17468C144.913 6.22435 144.853 6.26878 144.749 6.29958C144.645 6.33028 144.506 6.34462 144.362 6.34079C143.599 6.31866 142.838 6.30138 142.061 6.24568L142.042 6.24311C141.749 6.20639 141.454 6.14778 141.169 6.0717C139.992 5.74274 138.94 5.25538 137.872 4.79762C137.796 4.53411 137.639 4.28578 137.248 4.01808C137.239 4.01157 137.229 4.00496 137.219 3.99829L137.228 4.00233C137.02 3.88797 136.718 3.768 136.476 3.73396C136.245 3.70022 136.068 3.71753 135.897 3.73516C135.719 3.75444 135.547 3.77485 135.347 3.75487C134.999 3.71963 134.653 3.74863 134.298 3.78647C134.171 3.80061 134.025 3.81359 133.898 3.82821C132.814 3.72053 131.737 3.65999 130.639 3.61232C130.213 3.55638 129.833 3.51123 129.5 3.49654C129.215 3.48427 128.928 3.5087 128.657 3.54538C128.492 3.5413 128.324 3.53729 128.153 3.53335C127.066 3.50891 125.936 3.49285 124.859 3.48571C123.999 3.39431 123.123 3.307 121.932 3.24373C121.444 3.21734 120.945 3.17219 120.456 3.12937C119.781 3.06749 119.066 3.00892 118.512 3.02422C118.128 3.03407 117.712 2.99508 117.296 2.95668C116.764 2.90575 116.217 2.85536 115.705 2.92353C115.392 2.96656 115.115 3.02123 114.848 3.07186C114.428 3.15251 114.044 3.22315 113.709 3.22265C113.097 3.22199 112.55 3.2778 112.06 3.32729C111.991 3.33424 111.923 3.34106 111.857 3.34758C111.378 3.39734 110.958 3.42991 110.582 3.37007C110.517 3.3598 110.443 3.34631 110.359 3.331C109.905 3.25015 109.238 3.12176 108.221 3.17604C107.857 3.19536 107.52 3.25262 107.197 3.30899C106.722 3.39103 106.256 3.47086 105.752 3.42864C105.676 3.42232 105.598 3.39805 105.526 3.37589C105.434 3.3477 105.36 3.32316 105.313 3.34351C105.178 3.40324 104.964 3.4687 104.73 3.54001C104.557 3.59239 104.374 3.64796 104.205 3.70651C102.893 3.72979 101.629 3.75374 100.331 3.77719C99.7453 3.78801 99.1531 3.79874 98.555 3.80938C98.2462 3.71624 97.948 3.63232 97.6215 3.56847C97.1968 3.48505 96.6437 3.45789 95.9223 3.42317C95.3993 3.39766 94.7937 3.36802 94.0781 3.30922C92.7481 3.20033 91.4105 3.22252 90.5323 3.27873C90.3501 3.29061 90.1666 3.30333 89.97 3.31718C89.2268 3.3698 88.2795 3.4356 86.5134 3.51034C84.8242 3.58115 83.4111 3.60223 82.3322 3.61858C81.7869 3.62692 81.3323 3.63384 80.9835 3.64571C80.387 3.66603 79.6512 3.68502 78.9188 3.70432C77.7695 3.73451 76.6084 3.76574 75.955 3.80333C75.7219 3.81671 75.4771 3.83306 75.2126 3.8506C74.4792 3.8992 73.5951 3.95803 72.3753 3.99698C71.0945 4.03792 70.3007 4.0214 69.476 3.97913C69.1408 3.96197 68.8447 3.88642 68.5396 3.80841C68.106 3.69772 67.6537 3.58226 67.0441 3.62292C66.9018 3.63241 66.75 3.65225 66.5914 3.67307C66.2998 3.71133 65.9854 3.75284 65.6617 3.73874C65.5487 3.73382 65.449 3.71359 65.3513 3.69376C65.2438 3.67195 65.1385 3.65064 65.0194 3.65049C64.5745 3.64995 64.1422 3.6593 63.7585 3.66775C63.2638 3.67863 62.8496 3.68786 62.5902 3.67202C62.1292 3.64374 61.6265 3.67847 61.1187 3.71394C60.7301 3.74105 60.3418 3.76863 59.9592 3.76859C58.8673 3.7684 57.382 3.84211 55.8396 3.95582C55.2576 3.9988 54.7707 3.95691 54.1318 3.90358C53.7366 3.87039 53.2883 3.83253 52.7343 3.80822C52.4195 3.79445 52.1583 3.84137 51.9095 3.88486C51.6808 3.92492 51.4694 3.96199 51.252 3.94613C51.0601 3.93211 50.938 3.86153 50.8222 3.7945C50.6933 3.71991 50.5721 3.64976 50.3717 3.66693C50.2652 3.67607 50.1362 3.71433 49.983 3.7598C49.9224 3.77778 49.8578 3.79682 49.7895 3.81575C49.7927 3.801 49.7934 3.78785 49.7933 3.77791C49.7923 3.70764 49.5883 3.67387 49.3879 3.64083C49.3066 3.62766 49.2257 3.61467 49.1592 3.59944C48.9143 3.54335 48.4539 3.54114 48.1042 3.54981C47.9561 3.55346 47.8218 3.53393 47.6654 3.51116C47.5265 3.49094 47.3701 3.46813 47.1715 3.45675C47.0583 3.45027 46.9712 3.43141 46.8993 3.41566C46.8471 3.40426 46.8033 3.39451 46.761 3.39248C46.7248 3.39074 46.6959 3.4114 46.6635 3.43466C46.6402 3.4514 46.6149 3.46954 46.5836 3.48165C46.5088 3.51056 46.4123 3.5206 46.3444 3.51294C46.313 3.5094 46.2882 3.502 46.2635 3.49463C46.2348 3.48606 46.2062 3.47741 46.167 3.47491C45.9872 3.46345 45.8134 3.48956 45.6333 3.51671C45.4353 3.54655 45.2293 3.57758 44.9998 3.56151C44.9276 3.55644 44.8506 3.54319 44.7761 3.53034C44.6982 3.51688 44.6226 3.50391 44.5585 3.50127C44.3005 3.49058 44.0503 3.54561 43.8227 3.59624C43.6711 3.62992 43.5285 3.66162 43.396 3.67085C43.1532 3.68773 43.0245 3.75063 42.9296 3.79706C42.8805 3.82112 42.8404 3.84088 42.7981 3.84746C42.7592 3.84656 42.7198 3.84535 42.6812 3.84395C42.6458 3.84023 42.6091 3.83638 42.5749 3.83853C42.5723 3.8387 42.5698 3.83901 42.5672 3.83918C42.3514 3.8289 42.1401 3.81246 41.9308 3.79607C41.4554 3.75939 40.9763 3.72348 40.4829 3.76008C40.3763 3.76798 40.2683 3.79525 40.1587 3.82296C40.0245 3.85691 39.8875 3.89165 39.7476 3.89247C39.4185 3.89433 39.0681 3.86115 38.7306 3.82842C38.2218 3.77922 37.73 3.73139 37.2851 3.80745C37.139 3.83253 36.9945 3.87195 36.8461 3.91178C36.764 3.93396 36.6816 3.95633 36.5986 3.97617C36.6154 3.94274 36.6241 3.91155 36.6322 3.88245C36.6489 3.82248 36.6632 3.77115 36.7424 3.7259C36.9303 3.61892 37.1415 3.47292 37.1142 3.37085C37.1072 3.34314 37.1115 3.31198 37.1163 3.2806C37.1276 3.20189 37.1435 3.12138 36.9659 3.0895C36.8458 3.06802 36.5387 3.01955 36.3471 3.08435C36.3054 3.09847 36.2804 3.12501 36.2527 3.15449C36.2028 3.20748 36.1433 3.27023 35.9617 3.28911C35.9312 3.29228 35.8979 3.2953 35.8636 3.29819C35.7267 3.30972 35.5742 3.32254 35.5183 3.36557C35.4538 3.41514 35.4693 3.46961 35.4873 3.53312C35.5107 3.61584 35.5385 3.71408 35.4004 3.83694C35.373 3.86123 35.32 3.87069 35.2799 3.87787C35.2518 3.88292 35.2302 3.88694 35.2282 3.89409C35.226 3.9023 35.2355 3.91901 35.2475 3.94015C35.2902 4.01473 35.3637 4.14504 35.0702 4.15836C34.9909 4.16195 34.9002 4.15806 34.819 4.15452C34.6947 4.14945 34.5918 4.14529 34.5786 4.16729C34.5737 4.17563 34.5703 4.18462 34.5675 4.19391C34.469 4.19396 34.3708 4.19401 34.2729 4.19407C34.1466 4.1717 33.9708 4.17871 33.7531 4.18761C33.7002 4.18977 33.6446 4.19196 33.5869 4.19394C33.3961 4.19393 33.2063 4.19398 33.0177 4.19393C32.8663 4.18731 32.7146 4.17386 32.537 4.15075C32.1874 4.10425 31.8853 4.01976 31.5926 3.93721C31.4692 3.90242 31.3475 3.8679 31.2246 3.83679C31.2719 3.83104 31.3147 3.82466 31.3475 3.81667C31.5724 3.76203 31.6614 3.6654 31.743 3.57644C31.7973 3.51728 31.8486 3.46149 31.9356 3.42389C32.0949 3.35502 32.0767 3.28058 32.0631 3.22553C32.0561 3.19698 32.0507 3.17357 32.0718 3.15895C32.0888 3.14724 32.1288 3.14078 32.1701 3.1341C32.2061 3.12828 32.2433 3.1222 32.2669 3.11247C32.5545 2.99425 32.4654 2.93315 32.3353 2.84422C32.2636 2.79517 32.1801 2.73762 32.1402 2.65736C32.1055 2.57216 32.1154 2.54663 32.2666 2.50783C32.1467 2.46877 32.0272 2.42973 31.9081 2.3907C31.8619 2.39484 31.8278 2.42249 31.78 2.46816C31.6945 2.54973 31.4107 2.58718 31.1914 2.61651C31.0898 2.63008 31.0018 2.64196 30.9523 2.65561C30.6898 2.72823 30.7698 2.81547 30.8398 2.89222C30.8784 2.93447 30.914 2.97358 30.8882 3.0053C30.8772 3.01888 30.8939 3.03148 30.9107 3.04434C30.9238 3.05429 30.9371 3.06439 30.938 3.07519C30.9439 3.15362 30.7892 3.2168 30.6468 3.27549C30.6153 3.28846 30.5844 3.30123 30.5559 3.31391C30.5084 3.33413 30.4672 3.3541 30.4399 3.37422C30.4264 3.38421 30.4157 3.3943 30.4057 3.40409C30.391 3.41837 30.3768 3.432 30.3542 3.44401C30.3028 3.47137 30.1958 3.49213 30.0793 3.5148C30.0195 3.52642 29.9573 3.53856 29.8986 3.55237C29.8227 3.57028 29.7963 3.60225 29.7683 3.63565C29.7486 3.65925 29.7279 3.68358 29.6892 3.70433C29.619 3.74187 29.4759 3.75932 29.3439 3.77555C29.2864 3.78261 29.231 3.78958 29.1843 3.79773C29.1654 3.80105 29.1564 3.8067 29.1547 3.8141C28.9382 3.84602 28.739 3.87799 28.5352 3.90969C27.4989 4.06935 26.6396 4.20761 25.3201 4.18298C25.0771 4.17811 24.8089 4.19204 24.5341 4.21531C23.6667 4.22082 22.7992 4.22766 21.9434 4.23587C21.774 4.17309 21.5628 4.12374 21.3074 4.08963C20.8262 4.02572 20.3764 4.02986 19.7959 4.03879C19.3666 4.04547 18.9295 4.05126 18.3714 4.03432C17.4554 4.00478 16.5312 3.99198 15.4687 4.02913C14.4334 4.06413 13.2164 4.13206 12.3795 4.19525C11.9124 4.23027 11.4311 4.21035 10.9711 4.19532C10.3332 4.17316 9.76499 4.15829 9.41742 4.30482C9.30949 4.35127 9.20953 4.42254 9.11356 4.4918C9.04518 4.54113 8.97858 4.58936 8.91247 4.62724C8.71547 4.64045 8.52256 4.6539 8.33382 4.66725C7.99162 4.63622 7.46008 4.62551 6.95609 4.7763C6.76191 4.79319 6.56506 4.8113 6.37232 4.82953C5.96323 4.86852 5.55552 4.91079 5.14421 4.95797C5.00936 4.97339 4.87872 4.98855 4.74407 5.00485C4.74276 5.005 4.74145 5.00515 4.74014 5.00529C4.4615 5.03949 4.19756 5.07305 3.92392 5.11045C3.80804 5.12626 3.69941 5.14105 3.58005 5.15833C3.28644 5.20036 2.99103 5.2454 2.7057 5.29061C2.55161 5.31515 2.39568 5.34088 2.24357 5.36627C1.99004 5.40897 1.741 5.45234 1.48784 5.49794C1.08204 5.57082 0.676924 5.64691 0.271379 5.7237C0.204963 5.73623 0.139194 5.74024 0.0886091 5.73412C0.0380342 5.72797 0.00649397 5.71236 0.000918037 5.68959C-0.00463987 5.66681 0.0161475 5.63815 0.0581591 5.6091C0.100157 5.58012 0.160192 5.5532 0.224788 5.53338C0.619872 5.41237 1.01559 5.29224 1.41318 5.17552C1.66117 5.10283 1.90536 5.03227 2.15473 4.9626C2.30431 4.92058 2.4579 4.87846 2.60977 4.83737C2.89107 4.76099 3.18346 4.68478 3.47437 4.61183C3.59273 4.58233 3.70005 4.55539 3.81504 4.52735C4.08731 4.46115 4.3498 4.39908 4.62792 4.33639C4.62959 4.33602 4.63127 4.33564 4.63294 4.33527C4.76536 4.30522 4.8949 4.27615 5.02813 4.24699C5.43766 4.15755 5.84427 4.07332 6.25279 3.99284C6.47105 3.94974 6.68988 3.90789 6.91122 3.86659C7.03413 3.84364 7.16293 3.82019 7.28313 3.79825C7.34759 3.78651 7.41346 3.7747 7.48023 3.76283C9.03427 3.48598 10.5701 3.25756 12.1347 3.05157C13.6925 2.84665 15.254 2.66754 16.8091 2.50505C18.3676 2.34247 19.9285 2.19634 21.4986 2.06142C24.4738 1.80467 27.4853 1.585 30.4949 1.39072C37.4079 0.945957 44.3827 0.6233 51.3338 0.384197C52.7563 0.335398 54.221 0.290239 55.6381 0.249662C57.0805 0.208744 58.4856 0.172138 59.9347 0.139123C60.3752 0.128947 60.8207 0.119161 61.2823 0.10953Z" fill="white"/>
</svg>
