<svg width="238" height="75" viewBox="0 0 238 75" fill="none" xmlns="http://www.w3.org/2000/svg">
<path d="M119.283 24.3771C120.81 24.3771 122.018 24.6737 122.909 25.2669C123.248 25.4364 123.375 25.7542 123.29 26.2203L121.955 33.4661C121.912 33.9746 121.615 34.1229 121.064 33.911C120.428 33.6992 119.686 33.5932 118.838 33.5932C118.499 33.5932 118.032 33.6356 117.439 33.7203C115.912 33.8475 114.619 34.4195 113.559 35.4364C112.498 36.411 111.968 37.7246 111.968 39.3771V56.7288C111.968 56.9407 111.884 57.1314 111.714 57.3008C111.587 57.428 111.417 57.4915 111.205 57.4915H103.763C103.551 57.4915 103.36 57.428 103.191 57.3008C103.064 57.1314 103 56.9407 103 56.7288V25.5847C103 25.3729 103.064 25.2034 103.191 25.0763C103.36 24.9068 103.551 24.822 103.763 24.822H111.205C111.417 24.822 111.587 24.9068 111.714 25.0763C111.884 25.2034 111.968 25.3729 111.968 25.5847V28C111.968 28.1271 112.011 28.2119 112.096 28.2542C112.18 28.2966 112.244 28.2754 112.286 28.1907C114.025 25.6483 116.357 24.3771 119.283 24.3771Z" fill="white"/>
<path d="M155.482 37.7881C155.737 39.3983 155.822 41.1992 155.737 43.1907C155.694 43.6992 155.419 43.9534 154.91 43.9534H135.256C135.001 43.9534 134.916 44.0593 135.001 44.2712C135.128 45.1186 135.362 45.9661 135.701 46.8136C136.803 49.1864 139.051 50.3729 142.443 50.3729C145.157 50.3305 147.298 49.2288 148.867 47.0678C149.037 46.8136 149.228 46.6864 149.44 46.6864C149.567 46.6864 149.715 46.7712 149.885 46.9407L154.465 51.4534C154.677 51.6653 154.783 51.8559 154.783 52.0254C154.783 52.1102 154.698 52.2797 154.528 52.5339C153.129 54.2712 151.327 55.6271 149.122 56.6017C146.917 57.5339 144.5 58 141.871 58C138.224 58 135.128 57.1737 132.584 55.5212C130.082 53.8686 128.28 51.5593 127.178 48.5932C126.287 46.4746 125.842 43.6992 125.842 40.2669C125.842 37.9364 126.16 35.8814 126.796 34.1017C127.771 31.0932 129.467 28.6992 131.885 26.9195C134.344 25.1398 137.249 24.25 140.599 24.25C144.839 24.25 148.231 25.4788 150.775 27.9364C153.362 30.3941 154.931 33.678 155.482 37.7881ZM140.662 32.0042C137.991 32.0042 136.231 33.2542 135.383 35.7542C135.213 36.3051 135.065 36.9831 134.938 37.7881C134.938 38 135.044 38.1059 135.256 38.1059H146.259C146.514 38.1059 146.599 38 146.514 37.7881C146.302 36.5593 146.196 35.9661 146.196 36.0085C145.814 34.7373 145.136 33.7627 144.16 33.0847C143.228 32.3644 142.061 32.0042 140.662 32.0042Z" fill="white"/>
<path d="M175.639 58C172.247 58 169.3 57.1525 166.798 55.4576C164.338 53.7627 162.578 51.4322 161.518 48.4661C160.798 46.3475 160.437 43.8475 160.437 40.9661C160.437 38.1271 160.798 35.6695 161.518 33.5932C162.536 30.7119 164.296 28.4449 166.798 26.7924C169.3 25.1398 172.247 24.3136 175.639 24.3136C179.031 24.3136 181.999 25.161 184.544 26.8559C187.13 28.5508 188.848 30.6907 189.696 33.2754C190.035 34.2924 190.205 35.0551 190.205 35.5636V35.6907C190.205 36.072 189.993 36.3051 189.569 36.3898L182.254 37.4703H182.127C181.745 37.4703 181.491 37.2585 181.363 36.8347L181.173 35.8178C180.876 34.7161 180.219 33.8051 179.201 33.0847C178.183 32.3644 176.975 32.0042 175.575 32.0042C174.218 32.0042 173.073 32.3432 172.141 33.0212C171.208 33.6992 170.55 34.6314 170.169 35.8178C169.702 37.089 169.469 38.8263 169.469 41.0297C169.469 43.2331 169.681 44.9703 170.105 46.2415C170.487 47.5127 171.144 48.5085 172.077 49.2288C173.052 49.9492 174.218 50.3093 175.575 50.3093C176.89 50.3093 178.035 49.9703 179.01 49.2924C180.028 48.572 180.727 47.5975 181.109 46.3686C181.151 46.2839 181.173 46.1568 181.173 45.9873C181.215 45.9449 181.236 45.8814 181.236 45.7966C181.279 45.2881 181.575 45.0763 182.127 45.161L189.441 46.3051C189.865 46.3898 190.077 46.6229 190.077 47.0042C190.077 47.3432 189.95 47.9788 189.696 48.911C188.805 51.75 187.067 53.9746 184.48 55.5847C181.936 57.1949 178.989 58 175.639 58Z" fill="white"/>
<path d="M208.466 24.3136C211.223 24.3136 213.682 24.8008 215.845 25.7754C218.007 26.7076 219.682 28 220.87 29.6525C222.099 31.3051 222.714 33.1483 222.714 35.1822V56.7288C222.714 56.9407 222.629 57.1314 222.46 57.3008C222.333 57.428 222.163 57.4915 221.951 57.4915H214.509C214.297 57.4915 214.106 57.428 213.937 57.3008C213.809 57.1314 213.746 56.9407 213.746 56.7288V54.6314C213.746 54.5042 213.703 54.4195 213.619 54.3771C213.534 54.3347 213.449 54.3771 213.364 54.5042C211.583 56.8347 208.721 58 204.777 58C201.47 58 198.798 57.1949 196.763 55.5847C194.728 53.9746 193.71 51.6017 193.71 48.4661C193.71 45.2034 194.855 42.6822 197.145 40.9025C199.434 39.0805 202.7 38.1695 206.94 38.1695H213.428C213.64 38.1695 213.746 38.0636 213.746 37.8517V36.4534C213.746 35.0551 213.322 33.9746 212.474 33.2119C211.626 32.4068 210.353 32.0042 208.657 32.0042C207.343 32.0042 206.24 32.2373 205.35 32.7034C204.502 33.1695 203.95 33.8263 203.696 34.6737C203.569 35.1398 203.293 35.3517 202.869 35.3093L195.173 34.2924C194.664 34.2076 194.431 34.0169 194.473 33.7203C194.643 31.9407 195.342 30.3305 196.572 28.8898C197.844 27.4492 199.498 26.3263 201.533 25.5212C203.611 24.7161 205.922 24.3136 208.466 24.3136ZM207.194 51.3263C209.018 51.3263 210.565 50.839 211.838 49.8644C213.11 48.8898 213.746 47.6398 213.746 46.1144V43.8263C213.746 43.6144 213.64 43.5085 213.428 43.5085H208.848C206.94 43.5085 205.435 43.8686 204.332 44.589C203.272 45.3093 202.742 46.3263 202.742 47.6398C202.742 48.7839 203.145 49.6949 203.95 50.3729C204.756 51.0085 205.837 51.3263 207.194 51.3263Z" fill="white"/>
<path d="M229.795 57.4915C229.583 57.4915 229.392 57.428 229.222 57.3008C229.095 57.1314 229.032 56.9407 229.032 56.7288V13.7627C229.032 13.5508 229.095 13.3814 229.222 13.2542C229.392 13.0847 229.583 13 229.795 13H237.237C237.449 13 237.618 13.0847 237.746 13.2542C237.915 13.3814 238 13.5508 238 13.7627V56.7288C238 56.9407 237.915 57.1314 237.746 57.3008C237.618 57.428 237.449 57.4915 237.237 57.4915H229.795Z" fill="white"/>
<path d="M0 0H56C56 31.4468 30.9279 56.9395 0 56.9395V0Z" fill="#93F07E"/>
<path d="M29.6625 75V48.2206C44.2083 48.2206 56 60.2102 56 75H29.6625Z" fill="#93F07E"/>
</svg>
